<svg width="255" height="217" viewBox="0 0 255 217" fill="none" xmlns="http://www.w3.org/2000/svg">
<circle cx="3.5" cy="3.5" r="3.5" fill="#D06EEB"/>
<circle cx="34.5" cy="3.5" r="4" fill="#D06EEB"/>
<circle cx="65.5" cy="3.5" r="4.5" fill="#D06EEB"/>
<circle cx="96.5" cy="3.5" r="5" fill="#D06EEB"/>
<circle cx="127.5" cy="3.5" r="5.5" fill="#D06EEB"/>
<circle cx="158.5" cy="3.5" r="5" fill="#D06EEB"/>
<circle cx="189.5" cy="3.5" r="4.5" fill="#D06EEB"/>
<circle cx="220.5" cy="3.5" r="4" fill="#D06EEB"/>
<circle cx="251.5" cy="3.5" r="3.5" fill="#D06EEB"/>

<circle cx="3.5" cy="33.5" r="4" fill="#D06EEB"/>
<circle cx="34.5" cy="33.5" r="4.5" fill="#D06EEB"/>
<circle cx="65.5" cy="33.5" r="5" fill="#D06EEB"/>
<circle cx="96.5" cy="33.5" r="5.5" fill="#D06EEB"/>
<circle cx="127.5" cy="33.5" r="6" fill="#D06EEB"/>
<circle cx="158.5" cy="33.5" r="5.5" fill="#D06EEB"/>
<circle cx="189.5" cy="33.5" r="5" fill="#D06EEB"/>
<circle cx="220.5" cy="33.5" r="4.5" fill="#D06EEB"/>
<circle cx="251.5" cy="33.5" r="4" fill="#D06EEB"/>

<circle cx="3.5" cy="63.5" r="4.5" fill="#D06EEB"/>
<circle cx="34.5" cy="63.5" r="5" fill="#D06EEB"/>
<circle cx="65.5" cy="63.5" r="5.5" fill="#D06EEB"/>
<circle cx="96.5" cy="63.5" r="6" fill="#D06EEB"/>
<circle cx="127.5" cy="63.5" r="6.5" fill="#D06EEB"/>
<circle cx="158.5" cy="63.5" r="6" fill="#D06EEB"/>
<circle cx="189.5" cy="63.5" r="5.5" fill="#D06EEB"/>
<circle cx="220.5" cy="63.5" r="5" fill="#D06EEB"/>
<circle cx="251.5" cy="63.5" r="4.5" fill="#D06EEB"/>

<circle cx="3.5" cy="93.5" r="5" fill="#D06EEB"/>
<circle cx="34.5" cy="93.5" r="5.5" fill="#D06EEB"/>
<circle cx="65.5" cy="93.5" r="6" fill="#D06EEB"/>
<circle cx="96.5" cy="93.5" r="6.5" fill="#D06EEB"/>
<circle cx="127.5" cy="93.5" r="7" fill="#D06EEB"/>
<circle cx="158.5" cy="93.5" r="6.5" fill="#D06EEB"/>
<circle cx="189.5" cy="93.5" r="6" fill="#D06EEB"/>
<circle cx="220.5" cy="93.5" r="5.5" fill="#D06EEB"/>
<circle cx="251.5" cy="93.5" r="5" fill="#D06EEB"/>

<circle cx="3.5" cy="123.5" r="5" fill="#D06EEB"/>
<circle cx="34.5" cy="123.5" r="5.5" fill="#D06EEB"/>
<circle cx="65.5" cy="123.5" r="6" fill="#D06EEB"/>
<circle cx="96.5" cy="123.5" r="6.5" fill="#D06EEB"/>
<circle cx="127.5" cy="123.5" r="7" fill="#D06EEB"/>
<circle cx="158.5" cy="123.5" r="6.5" fill="#D06EEB"/>
<circle cx="189.5" cy="123.5" r="6" fill="#D06EEB"/>
<circle cx="220.5" cy="123.5" r="5.5" fill="#D06EEB"/>
<circle cx="251.5" cy="123.5" r="5" fill="#D06EEB"/>

<circle cx="3.5" cy="153.5" r="5" fill="#D06EEB"/>
<circle cx="34.5" cy="153.5" r="5.5" fill="#D06EEB"/>
<circle cx="65.5" cy="153.5" r="6" fill="#D06EEB"/>
<circle cx="96.5" cy="153.5" r="6.5" fill="#D06EEB"/>
<circle cx="127.5" cy="153.5" r="7.5" fill="#D06EEB"/>
<circle cx="158.5" cy="153.5" r="7" fill="#D06EEB"/>
<circle cx="189.5" cy="153.5" r="7.5" fill="#D06EEB"/>
<circle cx="220.5" cy="153.5" r="8" fill="#D06EEB"/>
<circle cx="251.5" cy="153.5" r="8.5" fill="#D06EEB"/>

<circle cx="3.5" cy="183.5" r="4" fill="#D06EEB"/>
<circle cx="34.5" cy="183.5" r="4.5" fill="#D06EEB"/>
<circle cx="65.5" cy="183.5" r="5" fill="#D06EEB"/>
<circle cx="96.5" cy="183.5" r="5.5" fill="#D06EEB"/>
<circle cx="127.5" cy="183.5" r="6" fill="#D06EEB"/>
<circle cx="158.5" cy="183.5" r="6.5" fill="#D06EEB"/>
<circle cx="189.5" cy="183.5" r="7" fill="#D06EEB"/>
<circle cx="220.5" cy="183.5" r="7.5" fill="#D06EEB"/>
<circle cx="251.5" cy="183.5" r="8" fill="#D06EEB"/>

<circle cx="3.5" cy="213.5" r="3.5" fill="#D06EEB"/>
<circle cx="34.5" cy="213.5" r="4" fill="#D06EEB"/>
<circle cx="65.5" cy="213.5" r="4.5" fill="#D06EEB"/>
<circle cx="96.5" cy="213.5" r="5" fill="#D06EEB"/>
<circle cx="127.5" cy="213.5" r="5.5" fill="#D06EEB"/>
<circle cx="158.5" cy="213.5" r="6" fill="#D06EEB"/>
<circle cx="189.5" cy="213.5" r="6.5" fill="#D06EEB"/>
<circle cx="220.5" cy="213.5" r="7" fill="#D06EEB"/>
<circle cx="251.5" cy="213.5" r="7.5" fill="#D06EEB"/>
</svg>
